<?xml version="1.0" standalone="no"?>
<!DOCTYPE svg PUBLIC "-//W3C//DTD SVG 20010904//EN"
 "http://www.w3.org/TR/2001/REC-SVG-20010904/DTD/svg10.dtd">
<svg version="1.0" xmlns="http://www.w3.org/2000/svg"
 width="512.000000pt" height="512.000000pt" viewBox="0 0 512.000000 512.000000"
 preserveAspectRatio="xMidYMid meet">
<metadata>
Created by potrace 1.14, written by Peter Selinger 2001-2017
</metadata>
<g transform="translate(0.000000,512.000000) scale(0.100000,-0.100000)"
fill="#000000" stroke="none">
<path d="M950 3930 c0 -59 3 -80 13 -80 11 0 181 -20 295 -36 l42 -5 -2 -1082
-3 -1082 -172 -24 -173 -24 0 -79 0 -78 430 0 430 0 0 79 0 78 -147 22 c-82
13 -153 24 -159 26 -8 2 -13 253 -18 907 -4 497 -9 930 -12 963 -3 45 -2 56 6
43 8 -13 748 -1810 857 -2080 l15 -38 97 0 96 0 409 1055 c225 580 413 1060
418 1067 9 15 11 -1517 1 -1755 l-6 -166 -26 -5 c-14 -3 -86 -13 -158 -22
l-133 -17 0 -78 0 -79 520 0 520 0 0 78 0 79 -170 20 c-94 11 -174 24 -178 28
-9 8 -10 2151 -1 2160 5 5 301 45 337 45 8 0 12 23 12 80 l0 80 -378 0 -377 0
-405 -1050 c-222 -577 -407 -1050 -410 -1050 -4 0 -174 413 -380 918 -205 504
-398 977 -428 1050 l-54 132 -354 0 -354 0 0 -80z"/>
</g>
</svg>
